<?xml version="1.0" encoding="UTF-8"?>
<svg width="1100" height="500" viewBox="0 0 1100 500" xmlns="http://www.w3.org/2000/svg">
  <style>
    .actor { font: bold 16px sans-serif; }
    .msg { font: 14px sans-serif; }
    .arrow { stroke: #222; stroke-width: 2; marker-end: url(#arrowhead); }
    .lifeline { stroke: #aaa; stroke-dasharray: 4 4; }
  </style>
  <defs>
    <marker id="arrowhead" markerWidth="10" markerHeight="7" refX="10" refY="3.5" orient="auto">
      <polygon points="0 0, 10 3.5, 0 7" fill="#222"/>
    </marker>
  </defs>
  <!-- Actors -->
  <g>
    <text x="40" y="40" class="actor">Client</text>
    <text x="150" y="40" class="actor">API</text>
    <text x="260" y="40" class="actor">CQRSService</text>
    <text x="390" y="40" class="actor">EventStore</text>
    <text x="520" y="40" class="actor">OutboxTable</text>
    <text x="650" y="40" class="actor">OutboxPoller</text>
    <text x="760" y="40" class="actor">Kafka</text>
    <text x="900" y="40" class="actor">KafkaEventProcessor</text>
    <text x="1050" y="40" class="actor">ProjectionStore</text>
  </g>
  <!-- Lifelines -->
  <g>
    <line x1="50" x2="50" y1="60" y2="480" class="lifeline"/>
    <line x1="160" x2="160" y1="60" y2="480" class="lifeline"/>
    <line x1="270" x2="270" y1="60" y2="480" class="lifeline"/>
    <line x1="400" x2="400" y1="60" y2="480" class="lifeline"/>
    <line x1="530" x2="530" y1="60" y2="480" class="lifeline"/>
    <line x1="660" x2="660" y1="60" y2="480" class="lifeline"/>
    <line x1="770" x2="770" y1="60" y2="480" class="lifeline"/>
    <line x1="910" x2="910" y1="60" y2="480" class="lifeline"/>
    <line x1="1060" x2="1060" y1="60" y2="480" class="lifeline"/>
  </g>
  <!-- Messages -->
  <g>
    <text x="70" y="90" class="msg">HTTP Command (e.g., Deposit)</text>
    <line x1="50" y1="100" x2="160" y2="100" class="arrow"/>
    <text x="180" y="130" class="msg">Parse &amp; Validate Command</text>
    <line x1="160" y1="140" x2="270" y2="140" class="arrow"/>
    <text x="290" y="170" class="msg">Save Event(s)</text>
    <line x1="270" y1="180" x2="400" y2="180" class="arrow"/>
    <text x="420" y="210" class="msg">Write Outbox Row</text>
    <line x1="400" y1="220" x2="530" y2="220" class="arrow"/>
    <text x="670" y="250" class="msg">Poll Outbox Table</text>
    <line x1="660" y1="260" x2="530" y2="260" class="arrow" marker-end="none"/>
    <text x="680" y="290" class="msg">Publish Event</text>
    <line x1="660" y1="300" x2="770" y2="300" class="arrow"/>
    <text x="790" y="330" class="msg">Event Message</text>
    <line x1="770" y1="340" x2="910" y2="340" class="arrow"/>
    <text x="930" y="370" class="msg">Update Projection</text>
    <line x1="910" y1="380" x2="1060" y2="380" class="arrow"/>
    <text x="1080" y="410" class="msg">(On Query) Return State</text>
    <line x1="1060" y1="420" x2="50" y2="420" class="arrow"/>
  </g>
</svg>